# xmcd CD database file
#
# Track frame offsets:
#	150
#	11504
#	22993
#	34186
#	44805
#	57919
#	68639
#	79728
#	90917
#	102245
#	114810
#	126555
#
# Disc length: 1839 seconds
#
# Revision: 0
# Processed by: cddbd v1.4PL0 Copyright (c) Steve Scherf et al.
# Submitted via: CDex 1.50beta9
#
DISCID=92072d0c
DTITLE=Patsy Cline - The Best Of Patsy Cline
DYEAR=1900
DGENRE=Country
TTITLE0=Loved And Lost Again
TTITLE1=Let The Teardrops Fall
TTITLE2=Just Out Of reach
TTITLE3=That's How Much I Love You
TTITLE4=Life's Railway To Heaven
TTITLE5=I Can See An Angel
TTITLE6=Hungry For Love
TTITLE7=Dear God
TTITLE8=The Heart You Break May Be Your Own
TTITLE9=Yes I Understand
TTITLE10=If Only I Could Sleep
TTITLE11=Never No More
EXTD=
EXTT0=
EXTT1=
EXTT2=
EXTT3=
EXTT4=
EXTT5=
EXTT6=
EXTT7=
EXTT8=
EXTT9=
EXTT10=
EXTT11=
PLAYORDER=
